<?xml version="1.0" encoding="iso-8859-1"?>
<!-- Generator: Adobe Illustrator 21.0.0, SVG Export Plug-In . SVG Version: 6.00 Build 0)  -->
<svg xmlns="http://www.w3.org/2000/svg" xmlns:xlink="http://www.w3.org/1999/xlink" version="1.1" id="Capa_1" x="0px" y="0px" viewBox="0 0 512 512" style="enable-background:new 0 0 512 512;" xml:space="preserve" width="512" height="512">
<g>
	<path style="fill:#E1F5FE;" d="M363.779,512H145.127c-2.277,0-4.123-1.846-4.123-4.123v-51.826h226.899v51.826   C367.902,510.154,366.056,512,363.779,512z"/>
	<path style="fill:#B3E5FC;" d="M336.962,456.051v51.828c0,2.276-1.847,4.121-4.125,4.121h30.941c2.279,0,4.125-1.845,4.125-4.121   v-51.828H336.962z"/>
	<path style="fill:#4CAF50;" d="M383.888,69.022v159.765c0,15.726-0.887,31.439-2.657,47.066l-10.672,94.219   c-1.77,15.626-2.657,31.34-2.657,47.066v62.928H141.003v-62.928c0-15.726-0.887-31.439-2.657-47.066l-10.672-94.219   c-1.77-15.626-2.657-31.34-2.657-47.066V69.022H383.888z"/>
	<path style="fill:#43A047;" d="M352.948,69.022v159.765c0,15.726-0.887,31.439-2.657,47.066l-10.672,94.219   c-1.77,15.626-2.657,31.34-2.657,47.066v62.928h30.941v-62.928c0-15.726,0.887-31.439,2.657-47.066l10.672-94.219   c1.77-15.626,2.657-31.34,2.657-47.066V69.022H352.948z"/>
	<path style="fill:#F5F5F5;" d="M373.785,45.529c-4.581-9.639-15.536-14.362-25.541-11.055c-1.063,0.351-2.19-0.214-2.553-1.272   c-3.292-9.598-12.3-16.489-22.898-16.489c-6.757,0-12.866,2.803-17.261,7.322c-0.826,0.85-2.243,0.778-2.976-0.153   c-4.44-5.64-11.278-9.258-18.954-9.258c-6.998,0-13.3,3.005-17.724,7.809c-0.895,0.972-2.483,0.816-3.166-0.314   c-7.136-11.829-22.139-16.091-34.278-9.863c-0.891,0.457-1.983,0.172-2.544-0.657C221.152,4.597,213.201,0,204.187,0   c-13.418,0-24.487,10.177-26.096,23.326c-0.124,1.013-0.99,1.763-2.012,1.752c-8.651-0.092-16.487,4.075-21.395,10.785   c-0.45,0.616-1.18,0.988-1.936,0.886c-10.014-1.351-19.281,4.815-22.302,14.213c-0.315,0.981-1.304,1.552-2.317,1.362   C117.828,50.385,108,58.282,108,69.041c0,13.398,14.633,21.207,25.653,14.637c0.858-0.511,1.951-0.328,2.587,0.442   c8.071,9.776,23.24,9.327,30.758-0.786c0.653-0.879,1.881-1.133,2.77-0.492c5.242,3.78,12.051,4.19,17.624,1.352   c0.947-0.482,2.091-0.173,2.649,0.731c9.293,15.04,31.348,15.258,40.924,0.381c0.579-0.899,1.742-1.192,2.677-0.673   c8.817,4.886,20.067,2.252,25.738-6.243c0.621-0.931,1.931-1.147,2.821-0.469c5.728,4.366,13.377,5.238,19.95,2.233   c1.011-0.462,2.199-0.068,2.687,0.93c3.349,6.843,11.519,5.281,12.245,5.475c5.696,0,10.314,4.613,10.314,10.305   c0,12.199,14.126,10.205,14.439,10.305c5.696,0,10.314,4.613,10.314,10.305v32.889c0,34.385,51.74,34.415,51.74,0V83.956   c0.173,0.005,0.342,0.026,0.516,0.026c10.822,0,19.596-8.766,19.596-19.579c0-14.439-14.942-23.536-27.541-17.887   C375.439,46.974,374.264,46.538,373.785,45.529z"/>
	<g>
		<path style="fill:#E6E6E6;" d="M376.459,46.517c-1.02,0.457-2.195,0.021-2.674-0.988c-4.581-9.639-15.536-14.362-25.541-11.055    c-1.063,0.351-2.19-0.214-2.553-1.272c-3.292-9.598-12.3-16.489-22.898-16.489c-5.884,0-11.275,2.127-15.473,5.659    c3.364,2.83,5.965,6.558,7.43,10.829c0.358,1.043,1.471,1.633,2.518,1.284c10.032-3.344,13.182,7.952,20.724,15.526    c10.619,10.663,29.909-0.047,29.909,14.393c0,4.248-2.281,8.177-5.062,11.381c-6.535,7.531-9.893,17.303-9.893,27.269v47.307    c0,9.905-4.29,16.95-10.394,21.151c15.108,10.389,41.335,3.353,41.335-21.151V84.647c0-0.494,0.342-0.665,0.516-0.665    c10.822,0,19.596-8.766,19.596-19.579C404,49.964,389.058,40.867,376.459,46.517z"/>
	</g>
	<g>
		<path style="fill:#5BD160;" d="M199.556,152.982c0-4.142-3.357-7.5-7.5-7.5s-7.5,3.358-7.5,7.5v7.211c0,4.142,3.357,7.5,7.5,7.5    s7.5-3.358,7.5-7.5V152.982z"/>
		<path style="fill:#5BD160;" d="M171.944,220.17c-4.143,0-7.5,3.358-7.5,7.5v7.211c0,4.142,3.357,7.5,7.5,7.5s7.5-3.358,7.5-7.5    v-7.211C179.444,223.528,176.087,220.17,171.944,220.17z"/>
		<path style="fill:#5BD160;" d="M283.331,157.428c-4.143,0-7.5,3.358-7.5,7.5v7.211c0,4.142,3.357,7.5,7.5,7.5s7.5-3.358,7.5-7.5    v-7.211C290.831,160.786,287.474,157.428,283.331,157.428z"/>
		<path style="fill:#5BD160;" d="M337.993,211.929c-4.143,0-7.5,3.358-7.5,7.5v7.211c0,4.142,3.357,7.5,7.5,7.5s7.5-3.358,7.5-7.5    v-7.211C345.493,215.287,342.136,211.929,337.993,211.929z"/>
		<path style="fill:#5BD160;" d="M236.92,368.001c-4.143,0-7.5,3.358-7.5,7.5v7.211c0,4.142,3.357,7.5,7.5,7.5s7.5-3.358,7.5-7.5    v-7.211C244.42,371.359,241.063,368.001,236.92,368.001z"/>
		<path style="fill:#5BD160;" d="M207.011,413.844c-4.143,0-7.5,3.358-7.5,7.5v7.211c0,4.142,3.357,7.5,7.5,7.5s7.5-3.358,7.5-7.5    v-7.211C214.511,417.202,211.153,413.844,207.011,413.844z"/>
		<path style="fill:#5BD160;" d="M307.053,410.238c-4.143,0-7.5,3.358-7.5,7.5v7.211c0,4.142,3.357,7.5,7.5,7.5s7.5-3.358,7.5-7.5    v-7.211C314.553,413.596,311.195,410.238,307.053,410.238z"/>
		<path style="fill:#5BD160;" d="M254.453,120.243c-4.143,0-7.5,3.358-7.5,7.5v7.211c0,4.142,3.357,7.5,7.5,7.5s7.5-3.358,7.5-7.5    v-7.211C261.953,123.601,258.596,120.243,254.453,120.243z"/>
	</g>
	<g>
		<path style="fill:#388E3C;" d="M255.742,210.159c0.421,0.536,1.226,0.536,1.647,0c2.424-3.083,10.193-11.437,23.201-11.437    c14.222,0,24.024,12.897,24.024,27.916c0,17.303-13.236,37.761-47.56,55.58c-0.304,0.158-0.674,0.158-0.978,0    c-34.324-17.819-47.56-38.277-47.56-55.58c0-15.02,9.802-27.916,24.024-27.916C245.549,198.722,253.318,207.076,255.742,210.159z"/>
		<path style="fill:#388E3C;" d="M193.833,318.743c0.253-0.633-0.149-1.331-0.824-1.428c-3.878-0.561-14.987-3.121-21.491-14.403    c-7.111-12.335-0.859-27.284,12.129-34.794c14.963-8.651,39.273-7.402,71.844,13.457c0.289,0.185,1.202,0.505,1.218,0.848    c1.753,38.678-9.321,60.385-24.285,69.037c-12.989,7.51-29.771,5.457-36.882-6.877    C189.038,333.301,192.378,322.387,193.833,318.743z"/>
		<path style="fill:#388E3C;" d="M318.167,318.743c-0.253-0.633,0.149-1.331,0.823-1.428c3.878-0.561,14.987-3.121,21.491-14.403    c7.111-12.335,0.859-27.284-12.129-34.794c-14.963-8.651-39.273-7.402-71.844,13.457c-0.289,0.185-0.474,0.505-0.489,0.848    c-1.753,38.678,9.321,60.385,24.285,69.037c12.989,7.51,29.042,5.457,36.154-6.877    C322.961,333.301,319.622,322.387,318.167,318.743z"/>
	</g>
</g>















</svg>
