<?xml version="1.0" encoding="iso-8859-1"?>
<!-- Generator: Adobe Illustrator 19.0.0, SVG Export Plug-In . SVG Version: 6.00 Build 0)  -->
<svg version="1.1" id="Layer_1" xmlns="http://www.w3.org/2000/svg" xmlns:xlink="http://www.w3.org/1999/xlink" x="0px" y="0px"
	 viewBox="0 0 464.34 464.34" style="enable-background:new 0 0 464.34 464.34;" xml:space="preserve">
<g transform="translate(0 -1020.36)" shape-rendering="auto" image-rendering="auto" color-rendering="auto" color-interpolation="sRGB">
	<g>
		<path style="fill:#2ECC71;" d="M410.398,1043.24l33.062,187.47c-2.504,2.275-14.034,12.914-32.469,26.814
			c-17.437,13.146-38.495,27.27-55.062,33.467l-33.344-190.031c20.622-6.885,43.117-22.1,61.843-36.219
			C399.23,1053.581,404.438,1048.503,410.398,1043.24z"/>
		<path style="fill:#FFFFFF;" d="M167.366,1081.46c19.169,0.016,39.392,5.686,60.437,11.75c25.456,7.34,52.066,15.172,79.094,11.344
			l33.468,189.781c-22.469,2.908-46.598-3.701-71.813-10.969c-25.464-7.34-52.084-15.182-79.125-11.344l-33.436-189.75
			c3.749-0.48,7.535-0.816,11.374-0.816L167.366,1081.46z"/>
		<g>
			<path style="fill:#464C63;" d="M36.297,1092.235c-4.418-0.074-8.06,3.447-8.135,7.865c-0.009,0.537,0.036,1.074,0.135,1.604
				l64,375.906c0.504,4.391,4.471,7.541,8.861,7.037s7.54-4.473,7.036-8.861c-0.033-0.291-0.082-0.578-0.147-0.863l-64-375.906
				C43.455,1095.172,40.185,1092.311,36.297,1092.235z"/>
			<path style="fill:#464C63;" d="M415.828,1020.36c-1.994,0.014-3.911,0.771-5.375,2.125c0,0-15.41,14.157-35.719,29.469
				c-20.309,15.314-45.946,31.516-63.156,35.563c-24.577,5.777-51.22-1.568-79.281-9.656c-28.061-8.09-57.523-16.902-87.406-9.875
				c-22.517,5.293-48.138,22.553-69.125,38.375c-20.987,15.824-36.906,30.438-36.906,30.438c-3.246,3.004-3.443,8.068-0.44,11.314
				c2.981,3.223,8,3.445,11.253,0.498c0,0,15.441-14.189,35.75-29.5c20.309-15.313,45.915-31.518,63.125-35.563
				c24.577-5.779,51.252,1.6,79.313,9.688c28.061,8.09,57.522,16.9,87.406,9.875c22.516-5.295,48.107-22.553,69.094-38.375
				c14.778-11.143,20.031-16.2,26-21.469l33.125,187.438c-2.495,2.264-14.027,12.877-32.469,26.781
				c-20.309,15.314-45.915,31.518-63.125,35.563c-24.577,5.777-51.252-1.6-79.313-9.688s-57.522-16.9-87.406-9.875
				c-22.516,5.295-48.107,22.553-69.094,38.377c-20.987,15.822-36.938,30.469-36.938,30.469c-3.363,2.867-3.765,7.916-0.898,11.279
				c2.867,3.363,7.916,3.764,11.279,0.898c0.149-0.127,0.293-0.26,0.432-0.396c0,0,15.441-14.156,35.75-29.469
				s45.915-31.516,63.125-35.563c24.577-5.777,51.252,1.568,79.313,9.658c28.061,8.088,57.523,16.898,87.406,9.875
				c22.517-5.295,48.107-22.553,69.094-38.377c20.987-15.822,36.938-30.438,36.938-30.438c2.012-1.848,2.942-4.592,2.469-7.281
				l-36.281-205.531C423.094,1023.135,419.737,1020.334,415.828,1020.36L415.828,1020.36z"/>
			<path style="fill:#464C63;" d="M154.578,1074.36l-15.75,2.783l36.313,205.531l15.75-2.783L154.578,1074.36z"/>
			<path style="fill:#464C63;" d="M321.297,1093.922l-15.75,2.781l36.281,205.531l15.75-2.781L321.297,1093.922z"/>
		</g>
	</g>
	<g>
		<path style="fill:#464C63;" d="M255.859,1132.672c-5.75,1.039-10.281,4.541-13.656,8.844c-0.192-0.16-0.241-0.465-0.437-0.592
			c-4.722-3.092-10.462-3.783-15.437-2.906c-6.473,1.152-11.072,5.332-14.188,10c-3.116,4.668-5.031,10.115-4.625,16.031
			c0.56,8.154,5.863,13.393,10.719,17.688c-5.373,0.465-11.543,1.119-15.969,6.438c-7.499,9.012-8.583,22.598-0.5,32.625
			c0.011,0,0.021,0,0.032,0c3.532,4.369,8.621,6.553,13.813,7.469c-0.18,5.5,1.222,11.156,4.906,15.719
			c7.805,9.66,22.355,11.248,31.719,3.094c3.51-3.072,5.085-7.361,6.219-11.656c2.513,3.607,5.378,7.125,9.688,8.781
			c0.011,0,0.021,0,0.032,0c11.611,4.42,24.642-2.146,28.719-13.875c1.925-5.545,1.367-11.344-0.656-16.469
			c4.591-2.662,8.645-6.51,10.5-11.844c4.224-12.164-1.287-24.637-11.438-30.531c-5.878-3.412-11.23-1.377-16.406,0
			c3.138-5.713,5.65-12.941,3.469-20.719c-1.488-5.305-4.663-9.982-9.156-13.469c-4.494-3.484-10.73-5.754-17.344-4.563
			L255.859,1132.672z"/>
		<path style="fill:#464C63;" d="M258.703,1148.422c1.556-0.271,3.053,0.16,4.719,1.439c1.666,1.297,3.072,3.518,3.531,5.154
			c0.786,2.805,0.219,4.996-2.094,9.094c-2.313,4.102-6.334,9.184-10.063,15.531c-2.234,3.813-0.954,8.715,2.859,10.947
			c1.365,0.801,2.937,1.178,4.516,1.084c6.953-0.432,11.509-3.465,16.313-5.156s7.978-1.686,8.781-1.217
			c2.562,1.488,5.581,7.965,4.375,11.438c-1.361,3.912-4.742,5.43-7.906,4.217c-0.015-0.004-0.016,0-0.032,0
			c-4.134-1.57-8.758,0.508-10.328,4.641s0.507,8.758,4.641,10.328c3.179,1.217,5.143,5.234,3.781,9.156
			c-1.355,3.898-4.724,5.383-7.906,4.188c-1.302-0.496-2.564-1.584-3.469-3.281c-2.919-5.479-5.096-9.732-8.844-16.938
			c-2.036-3.922-6.865-5.451-10.787-3.416c-2.314,1.203-3.898,3.457-4.244,6.041c-1.109,8.076-1.716,12.799-2.625,18.969
			c-0.285,1.938-1.131,3.453-2.219,4.404c-2.656,2.291-6.223,2.035-8.75-1.088c-2.542-3.146-2.094-7.684,0.563-10
			c3.331-2.908,3.674-7.967,0.766-11.297c-2.908-3.33-7.966-3.674-11.297-0.766c-2.647,2.305-6.21,2.049-8.75-1.088
			c-2.233-2.77-1.627-9.977,0.344-12.344c1.26-1.52,2.466-1.809,6.875-1.875c4.409,0,10.796,0.703,18.094-0.721
			c4.339-0.836,7.178-5.031,6.342-9.371c-0.313-1.621-1.12-3.107-2.31-4.252c-4.522-4.369-9.903-7.498-13.969-10.875
			c-4.066-3.379-5.977-6.221-6.125-8.377c-0.088-1.279,0.582-4,1.938-6.031c1.356-2.031,3.121-3.057,3.688-3.156
			c2.009-0.352,2.751-0.176,3.875,0.561c1.124,0.736,2.902,2.602,4.688,6.906c1.685,4.084,6.363,6.029,10.448,4.344
			c3.459-1.428,5.467-5.063,4.834-8.75c-0.693-4.018,1.886-7.709,5.75-8.406L258.703,1148.422z"/>
		<path style="fill:#464C63;" d="M32.172,1052.36c-15.368,0-28,12.633-28,28s12.632,28,28,28s28-12.633,28-28
			S47.54,1052.36,32.172,1052.36z"/>
	</g>
	<path style="fill:#E1E1E6;" d="M32.172,1068.36c6.723,0,12,5.281,12,12s-5.277,12-12,12s-12-5.281-12-12
		S25.449,1068.36,32.172,1068.36z"/>
	<path style="fill:#FF883E;" d="M140.49,1086.397l33.376,189.189c-20.631,6.871-43.058,22.109-61.813,36.25
		c-12.115,9.135-21.304,16.863-27.938,22.623l-32-188c3.096-2.824,15.363-13.889,33.25-27.375
		C102.81,1105.93,123.893,1092.594,140.49,1086.397z"/>
	<path style="fill:#2ECC71;" d="M258.721,1148.487c1.554-0.305,3.06,0.16,4.723,1.408c1.669,1.297,3.084,3.439,3.544,5.08
		c0.786,2.805,0.181,4.996-2.129,9.094c-2.31,4.102-6.311,9.244-10.039,15.59c-2.242,3.809-0.973,8.713,2.835,10.953
		c1.356,0.799,2.917,1.18,4.488,1.096c6.954-0.416,11.495-3.508,16.299-5.195c4.802-1.693,8.055-1.65,8.858-1.184
		c2.564,1.488,5.576,7.863,4.372,11.34c-1.361,3.912-4.747,5.461-7.913,4.252c-4.15-1.578-8.793,0.506-10.372,4.656
		c-1.568,4.121,0.478,8.736,4.585,10.344c3.181,1.217,5.14,5.17,3.78,9.094c-1.361,3.912-4.723,5.467-7.913,4.252
		c-1.306-0.48-2.522-1.609-3.423-3.309c-2.921-5.479-5.11-9.686-8.859-16.889c-2.059-3.91-6.898-5.41-10.808-3.35
		c-2.271,1.195-3.83,3.408-4.192,5.949c-1.107,8.076-1.687,12.729-2.6,18.898c-0.302,1.941-1.155,3.537-2.244,4.486
		c-2.661,2.316-6.204,1.961-8.74-1.184c-2.54-3.145-2.068-7.604,0.605-9.92c3.216-3.031,3.366-8.094,0.336-11.311
		c-2.867-3.043-7.594-3.363-10.848-0.738c-2.649,2.305-6.318,1.961-8.858-1.184c-2.231-2.77-1.615-9.914,0.363-12.283
		c1.258-1.504,2.443-1.828,6.85-1.889c4.408,0,10.891,0.721,18.189-0.703c4.334-0.863,7.147-5.076,6.284-9.41
		c-0.316-1.588-1.107-3.043-2.268-4.172c-4.523-4.373-9.871-7.605-13.937-10.984c-4.064-3.381-5.993-6.111-6.142-8.27
		c-0.122-1.703,0.484-4.311,1.651-6.141c1.155-1.834,2.346-2.795,3.9-3.072c3.864-0.688,7.457,1.771,8.15,5.787
		c1.126,4.273,5.502,6.824,9.775,5.699c3.759-0.992,6.262-4.541,5.934-8.414c-0.695-4.021,1.929-7.691,5.787-8.385L258.721,1148.487
		z"/>
	<g>
		<path style="fill:#E1E1E6;" d="M167.365,1081.46c-3.838-0.006-7.626,0.336-11.374,0.816l33.437,189.748
			c2.149-0.305,4.294-0.4,6.438-0.561l-33.344-189.188c2.699-0.352,5.445-0.48,8.187-0.592
			C169.605,1081.684,168.466,1081.46,167.365,1081.46z M306.897,1104.553c-3.306,0.465-6.614,0.736-9.906,0.881
			c3.328,0,6.654,0,10-0.32L306.897,1104.553z M206.084,1271.116c0,0.004-0.16,0-0.224,0c21.379,0.32,42.403,6.371,62.686,12.219
			c22.446,6.469,44.024,12.354,64.344,11.531c-18.397-0.496-37.752-5.75-57.813-11.531c-22.28-6.424-45.442-13.221-69-12.252
			L206.084,1271.116z"/>
		<path style="fill:#31AF66;" d="M410.397,1043.241c-5.962,5.263-11.168,10.341-25.97,21.5
			c-18.726,14.119-41.221,29.334-61.843,36.219l33.531,189.721c1.914-0.721,4.042-1.826,6.062-2.721l-33.063-187
			c20.622-6.885,43.117-22.1,61.843-36.219c10.466-7.889,15.782-12.476,20.312-16.499L410.397,1043.241z"/>
		<path style="fill:#D8793E;" d="M140.49,1086.397c-16.597,6.195-37.68,19.535-55.125,32.686
			c-17.886,13.486-30.154,24.553-33.25,27.377l32,188c1.36-1.184,4.165-3.309,5.75-4.656L58.647,1146.46
			c3.096-2.824,15.363-13.889,33.25-27.377c15.434-11.635,33.56-23.115,49.062-29.969L140.49,1086.397z"/>
	</g>
	<path style="fill:#31AF66;" d="M258.709,1148.491c-3.842,0.703-6.443,4.395-5.75,8.406c0.337,4.029-2.385,7.678-6.344,8.5
		c4.331,0.877,8.553-1.922,9.431-6.252c0.15-0.738,0.194-1.496,0.132-2.248c-0.656-3.781,1.674-7.178,5.157-8.156
		c-0.864-0.305-1.738-0.416-2.595-0.256L258.709,1148.491z M229.084,1153.805c-1.552,0.271-2.72,1.264-3.875,3.094
		c-1.168,1.83-1.776,4.42-1.656,6.125c0.16,2.156,2.062,4.9,6.125,8.281c4.067,3.379,9.414,6.598,13.938,10.969
		c3.175,3.072,3.258,8.139,0.185,11.313c-1.131,1.17-2.591,1.965-4.185,2.283c-3.424,0.672-6.627,0.768-9.562,0.783
		c3.752,0.16,7.949,0.16,12.781-0.783c4.336-0.85,7.163-5.053,6.314-9.389c-0.314-1.604-1.11-3.07-2.282-4.207
		c-4.525-4.371-9.872-7.588-13.938-10.969c-4.064-3.381-6.008-6.125-6.157-8.281c-0.16-1.705,0.496-4.295,1.656-6.125
		c1.072-1.713,2.218-2.623,3.626-2.969c-0.944-0.225-1.942-0.305-2.97-0.16L229.084,1153.805z M284.365,1185.118
		c-1.52,0.16-3.536,0.561-5.938,1.408c-4.523,1.584-8.866,4.322-15.157,5c0.687,0.156,1.391,0.221,2.094,0.191
		c6.955-0.416,11.509-3.5,16.312-5.188c2.083-0.736,3.699-1.023,5.126-1.217c-0.512-0.16-1.184-0.305-2.438-0.191L284.365,1185.118z
		 M221.428,1196.555c-4.406,0-5.586,0.4-6.843,1.906c-1.978,2.369-2.606,9.51-0.384,12.279c1.934,2.391,4.518,3.131,6.813,2.344
		c-1.28-0.352-2.547-1.057-3.594-2.344c-2.232-2.77-1.602-9.91,0.368-12.279c1.184-1.408,2.506-1.754,6.251-1.846
		c-0.832,0-1.902-0.16-2.626,0L221.428,1196.555z M283.834,1200.401c-0.463,0.023-0.924,0.088-1.376,0.191
		c0.446,0.08,0.885,0.197,1.312,0.352c1.248,0.48,2.482,0.416,3.656,0c-0.16,0-0.288-0.008-0.432,0
		c-1.006-0.385-2.08-0.564-3.157-0.527L283.834,1200.401z M257.585,1204.807c-0.517,0.014-1.031,0.078-1.536,0.191
		c2.354,0.471,4.373,1.973,5.499,4.094c3.749,7.203,5.955,11.396,8.875,16.875c0.896,1.699,2.101,2.828,3.406,3.313
		c1.248,0.48,2.491,0.4,3.656,0c-0.16,0-0.288-0.006-0.432,0c-1.312-0.48-2.506-1.613-3.406-3.313
		c-2.922-5.479-5.126-9.672-8.875-16.875c-1.399-2.666-4.177-4.32-7.187-4.281V1204.807z M231.178,1210.149
		c-0.495,0.008-0.987,0.061-1.472,0.16c4.328,0.893,7.113,5.123,6.221,9.451c-0.332,1.609-1.151,3.078-2.346,4.205
		c-2.674,2.318-3.165,6.793-0.624,9.938c1.938,2.398,4.478,3.146,6.75,2.344c-1.248-0.352-2.461-1.057-3.501-2.344
		c-2.539-3.145-2.078-7.619,0.592-9.938c3.209-3.037,3.348-8.102,0.311-11.311c-1.541-1.629-3.695-2.535-5.937-2.5L231.178,1210.149
		z"/>
	<path style="fill:#BDC3C7;" d="M32.178,1068.397c-6.726,0-12.032,5.217-12.032,11.938c0,6.719,5.309,12.063,12.032,12.063
		c0.896,0,1.67-0.32,2.499-0.496c-5.466-1.152-9.594-5.723-9.594-11.563c0-5.838,4.126-10.307,9.594-11.438
		c-0.832-0.176-1.608-0.496-2.499-0.496V1068.397z"/>
</g>
<g>
</g>
<g>
</g>
<g>
</g>
<g>
</g>
<g>
</g>
<g>
</g>
<g>
</g>
<g>
</g>
<g>
</g>
<g>
</g>
<g>
</g>
<g>
</g>
<g>
</g>
<g>
</g>
<g>
</g>
</svg>
