<svg id="Capa_1" enable-background="new 0 0 497 497" height="512" viewBox="0 0 497 497" width="512" xmlns="http://www.w3.org/2000/svg"><g><path d="m362.99 26.57-5.42 48.26-19.53 1.82-89.07 8.3-109.87-10.12-5.42-48.26c-1.58-14.17 9.5-26.57 23.76-26.57h181.79c14.26 0 25.34 12.4 23.76 26.57z" fill="#22b27f"/><path d="m362.99 26.57-5.42 48.26-19.53 1.82.2-1.82 5.41-48.26c1.59-14.17-9.5-26.57-23.76-26.57h19.34c14.26 0 25.34 12.4 23.76 26.57z" fill="#09a76d"/><path d="m357.574 74.833-6.61 58.962-102.634 10.091-102.624-10.091-6.61-58.962h84.269l25.602 7.016 24.668-7.016z" fill="#766e6e"/><path d="m223.365 133.795h-20.83c-7.753 0-14.038-6.285-14.038-14.038v-30.886c0-7.753 6.285-14.038 14.038-14.038h20.83z" fill="#605a5a"/><path d="m338.239 74.833-6.826 60.885 19.551-1.923 6.61-58.962z" fill="#605a5a"/><path d="m273.635 133.795h-50.269c-7.753 0-14.038-6.285-14.038-14.038v-30.886c0-7.753 6.285-14.038 14.038-14.038h50.269c7.753 0 14.038 6.285 14.038 14.038v30.887c-.001 7.752-6.286 14.037-14.038 14.037z" fill="#fbc56d"/><path d="m273.635 74.833h-20.83c7.753 0 14.038 6.285 14.038 14.038v30.887c0 7.753-6.285 14.038-14.038 14.038h20.83c7.753 0 14.038-6.285 14.038-14.038v-30.887c-.001-7.753-6.286-14.038-14.038-14.038z" fill="#fbc56d"/><g><path d="m254.146 111.814h-10.359c-4.143 0-7.5-3.358-7.5-7.5s3.357-7.5 7.5-7.5h10.359c4.143 0 7.5 3.358 7.5 7.5s-3.357 7.5-7.5 7.5z" fill="#f9f3f1"/></g><path d="m350.964 228.177h9.377c16.261 0 29.443-13.182 29.443-29.443v-4.412c0-16.261-13.182-29.443-29.443-29.443h-9.377l-10.434 33.63z" fill="#ffeee6"/><path d="m360.342 164.879h-9.377l-.844 2.721c11.36 4.083 20.329 13.956 20.329 26.721v4.412c0 12.765-8.969 22.959-20.329 27.042l.844 2.401h9.377c16.261 0 29.443-13.182 29.443-29.443v-4.412c0-16.26-13.182-29.442-29.443-29.442z" fill="#ffdfcf"/><path d="m145.703 228.177h-9.377c-16.261 0-29.443-13.182-29.443-29.443v-4.412c0-16.261 13.182-29.443 29.443-29.443h9.377l7.872 31.649z" fill="#ffeee6"/><path d="m136.325 164.879c-3.496 0-6.847.613-9.958 1.731v59.837c3.111 1.118 6.463 1.73 9.958 1.73h9.377l7.872-31.649-7.872-31.649z" fill="#ffdfcf"/><path d="m444.33 497h-62.055l-133.745-10.83-132.795 10.83h-63.065c-6.029 0-10.701-5.272-9.975-11.257l2.625-21.673 8.207-12.998-4.713-15.812c3.363-27.662 22.407-49.964 47.585-58.44 6.12-2.07 12.61-3.31 19.33-3.62.27-.01 133.275 19.032 133.275 19.032l132.266-19.032c34.307 1.549 62.728 27.67 66.915 62.06l-2.727 14.405 6.221 14.405 2.625 21.673c.727 5.985-3.945 11.257-9.974 11.257z" fill="#97da7b"/><path d="m362.94 497h-266.54v-120.18c6.12-2.07 12.61-3.31 19.33-3.62.27-.01 16.93-.02 41.79-.03 49.84-.01 118.9-.01 162.62 0 24.86.01 41.52.02 41.79.03z" fill="#80d261"/><path d="m448.188 435.298c-4.17-34.411-32.601-60.552-66.923-62.093-.561-.031-73.257-.046-142.433-.045 62.741.001 122.589.016 123.097.045 34.322 1.54 62.753 27.681 66.923 62.093l6.15 50.726c.559 4.609-1.931 9.049-6.155 10.976h15.482c6.029 0 10.701-5.272 9.975-11.257z" fill="#80d261"/><path d="m451.68 464.07h-406.36l3.49-28.81h399.38z" fill="#d4f2f6"/><path d="m362.67 464.07h-266.27v-28.81h266.04z" fill="#a6e7f0"/><path d="m451.68 464.07h-19.34l-3.49-28.77v-.04h19.34z" fill="#a6e7f0"/><path d="m382.275 497h-266.54v-123.795c.296-.017 29.968-.077 29.968-.077l103.302 19.104 103.238-19.104s28.843.067 29.022.077z" fill="#22b27f"/><path d="m382.28 497h-19.34l-.86-123.82c11.86 0 19.01.01 19.19.02z" fill="#09a76d"/><path d="m302.84 312.96v60.16l-.01.01-25.69 9.12-28.13 9.98-54.85-19.1v-60.17z" fill="#ffeee6"/><path d="m302.84 312.96v60.16l-.01.01-25.69 9.12 6.36-9.13v-60.16z" fill="#ffdfcf"/><path d="m276.2 411.34-27.7 39.73-9.65-13.84-17.26-24.77v-20.23l26.74-19.1 24.26 15.71z" fill="#d4f2f6"/><path d="m276.2 411.34-27.7 39.73-9.65-13.84 33.74-48.39z" fill="#a6e7f0"/><path d="m350.96 164.88v71.88c0 52.19-42.31 94.51-94.5 94.51h-16.25c-.51 0-1.03 0-1.54-.02-51.49-.82-92.97-42.81-92.97-94.49v-71.88l102.63-8.98 87.22 7.63z" fill="#ffeee6"/><path d="m350.96 164.88v71.88c0 52.19-42.31 94.51-94.5 94.51h-16.25c-.51 0-1.03 0-1.54-.02 51.48-.83 92.96-42.81 92.96-94.49v-71.88l3.92-1.35z" fill="#ffdfcf"/><path d="m325.267 287.54v-6.201c0-26.934-21.834-48.768-48.768-48.768h-55.998c-26.934 0-48.768 21.834-48.768 48.768v6.244c0 16.104 9.433 30.715 24.11 37.344l34.385 15.531c11.523 5.204 24.725 5.214 36.255.027l34.62-15.575c14.706-6.618 24.164-21.244 24.164-37.37z" fill="#fbc56d"/><path d="m276.499 232.57h-19.335c26.934 0 48.768 21.834 48.768 48.768v6.201c0 16.126-9.458 30.753-24.165 37.369l-34.62 15.575c-2.731 1.229-5.558 2.156-8.432 2.801 9.24 2.076 18.988 1.149 27.768-2.801l34.62-15.575c14.706-6.616 24.165-21.243 24.165-37.369v-6.201c0-26.934-21.835-48.768-48.769-48.768z" fill="#e9b665"/><path d="m248.503 249.975h-.007c-7.053 0-12.77-5.717-12.77-12.77v-30.186c0-7.053 5.717-12.77 12.77-12.77h.007c7.053 0 12.77 5.717 12.77 12.77v30.186c.001 7.053-5.717 12.77-12.77 12.77z" fill="#ffcebf"/><path d="m302.839 373.125-54.339 77.947-54.339-77.947-48.458.003 10.439 36.207c2.237 7.76 9.339 13.104 17.415 13.104h7.572c4.325 0 7.871 3.431 8.013 7.754l.646 19.624c.209 6.343 3.72 12.115 9.257 15.217l49.498 31.966 49.288-27.609c5.537-3.102 9.048-8.874 9.257-15.217l.646-19.624c.142-4.323 3.688-7.754 8.013-7.754h7.572c8.076 0 15.178-5.344 17.415-13.104l11.509-40.565z" fill="#97da7b"/><path d="m352.24 373.13-11.51 40.56c-2.23 7.76-9.33 13.11-17.41 13.11h-7.57c-4.33 0-7.87 3.43-8.02 7.75l-.64 19.62c-.21 6.35-3.72 12.12-9.26 15.22l-49.29 27.61-8.96-5.79 38.95-21.82c5.54-3.1 9.05-8.87 9.26-15.22l.64-19.62c.14-4.32 3.69-7.75 8.01-7.75h7.58c8.07 0 15.17-5.35 17.41-13.11l11.51-40.56z" fill="#80d261"/><path d="m229.174 461.358.022 23.147 19.347 12.495-.043-45.928-54.339-77.947-19.335.001 48.456 69.508c3.83 5.494 5.886 12.028 5.892 18.724z" fill="#80d261"/><path d="m302.86 373.12-.02.01v-.01z" fill="#97da7b"/><path d="m248.334 373.128-26.748 39.336-27.425-39.339z" fill="#fe646f"/><path d="m248.334 373.128 27.865 38.211 26.64-38.214z" fill="#fe646f"/><path d="m283.545 373.126-17.209 24.687 9.863 13.526 26.64-38.214z" fill="#fd4755"/><path d="m395.568 164.879h-294.136c-5.604 0-10.147-4.543-10.147-10.147v-10.785c0-5.604 4.543-10.147 10.147-10.147h294.136c5.604 0 10.147 4.543 10.147 10.147v10.785c0 5.604-4.543 10.147-10.147 10.147z" fill="#22b27f"/><path d="m395.568 133.8h-19.335c5.604 0 10.147 4.543 10.147 10.147v10.785c0 5.604-4.543 10.147-10.147 10.147h19.335c5.604 0 10.147-4.543 10.147-10.147v-10.785c0-5.604-4.543-10.147-10.147-10.147z" fill="#09a76d"/><g><g><path d="m189.201 217.097c-4.143 0-7.5-3.358-7.5-7.5v-9.864c0-4.142 3.357-7.5 7.5-7.5s7.5 3.358 7.5 7.5v9.864c0 4.142-3.357 7.5-7.5 7.5z" fill="#766e6e"/></g><g><path d="m307.799 217.097c-4.143 0-7.5-3.358-7.5-7.5v-9.864c0-4.142 3.357-7.5 7.5-7.5s7.5 3.358 7.5 7.5v9.864c0 4.142-3.358 7.5-7.5 7.5z" fill="#766e6e"/></g></g><g><path d="m243.86 295.503c-4.143 0-7.5-3.358-7.5-7.5s3.357-7.5 7.5-7.5c7.447 0 14.249-2.874 17.752-7.5 2.5-3.303 7.206-3.952 10.506-1.453 3.303 2.5 3.953 7.204 1.453 10.507-6.374 8.419-17.48 13.446-29.711 13.446z" fill="#e9b665"/></g></g></svg>