<?xml version="1.0" encoding="iso-8859-1"?>
<!-- Generator: Adobe Illustrator 21.0.0, SVG Export Plug-In . SVG Version: 6.00 Build 0)  -->
<svg xmlns="http://www.w3.org/2000/svg" xmlns:xlink="http://www.w3.org/1999/xlink" version="1.1" id="Capa_1" x="0px" y="0px" viewBox="0 0 512 512" style="enable-background:new 0 0 512 512;" xml:space="preserve" width="512" height="512">
<g>
	<path style="fill:#4CAF50;" d="M256,95C131.791,95,30.39,192.577,24.477,315.153h92.912   C123.169,243.84,183.125,187.588,256,187.588s132.831,56.252,138.611,127.565h92.912C481.61,192.577,380.209,95,256,95z"/>
	<path style="fill:#F5F5F5;" d="M256,125.863c-106.964,0-194.673,83.926-200.566,189.291h61.955   C123.169,243.84,183.125,187.588,256,187.588s132.831,56.252,138.611,127.565h61.955C450.673,209.788,362.964,125.863,256,125.863z   "/>
	<path style="fill:#FF9800;" d="M256,156.725c-89.914,0-163.758,70.089-169.599,158.428h30.988   C123.169,243.84,183.125,187.588,256,187.588s132.831,56.252,138.611,127.565h30.988C419.758,226.814,345.914,156.725,256,156.725z   "/>
	<path style="fill:#E6E6E6;" d="M457.905,310.225c-8.837-24.317-41.779-29.698-57.831-8.914c-0.789,1.022-2.305,1.096-3.164,0.132   c-22.535-25.299-63.937-17.49-76.021,13.785c-0.415,1.073-1.642,1.563-2.707,1.125c-2.292-0.945-4.73-1.609-7.271-1.948   c-1.126-0.15-1.931-1.17-1.775-2.293c3.781-27.198-17.399-51.482-44.895-51.482c-22.295,0-40.817,16.082-44.606,37.263   c-0.199,1.112-1.271,1.859-2.381,1.644c-8.354-1.618-17.09-0.894-25.22,2.304c-1.076,0.423-2.282-0.157-2.663-1.248   c-9.749-27.936-50.996-24.644-56.43,4.108c-0.255,1.35-1.774,2.057-2.994,1.423c-7.558-3.932-16.435-4.359-24.287-1.268   c-1.208,0.475-2.525-0.312-2.781-1.583c-6.296-31.257-52.556-30.271-57.629,1.073c-0.217,1.338-1.695,2.095-2.909,1.491   C23.377,296.403,0,310.006,0,332.148c0,20.63,20.666,34.516,39.502,27.526c1.105-0.41,2.316,0.167,2.688,1.285   c4.136,12.444,16.284,20.97,29.96,19.988c0.874-0.063,1.668,0.477,2.009,1.283c11.841,27.998,47.591,36.551,70.83,17.053   c0.746-0.626,1.849-0.624,2.595,0.001c18.987,15.905,47.453,13.618,63.603-5.367c0.939-1.103,2.667-0.946,3.38,0.314   c18.352,32.419,66.638,29.665,81.081-4.713c0.573-1.365,2.318-1.703,3.372-0.663c13.197,13.028,33.576,15.46,49.424,5.993   c1.022-0.611,2.341-0.216,2.877,0.846c11.925,23.628,45.799,24.496,58.912,1.421c0.523-0.921,1.675-1.293,2.634-0.84   c27.171,12.83,59.74-4.207,64.135-34.306c0.159-1.092,1.171-1.846,2.269-1.718C496.644,362.272,512,348.685,512,331.119   c0-27-33.095-39.023-50.664-20.202C460.288,312.039,458.429,311.667,457.905,310.225z"/>
	<g>
		<path style="fill:#D4D4D4;" d="M467.082,306.161c8.121,4.87,14.012,13.575,14.012,24.958c0,17.566-15.356,31.154-32.728,29.131    c-1.098-0.128-2.11,0.626-2.269,1.718c-2.545,17.425-14.538,30.455-29.454,35.864c26.329,9.658,56.166-7.147,60.359-35.864    c0.159-1.092,1.171-1.846,2.269-1.718C496.644,362.272,512,348.685,512,331.119C512,306.843,485.251,294.689,467.082,306.161z"/>
	</g>
</g>















</svg>
