<?xml version="1.0" encoding="iso-8859-1"?>
<!-- Generator: Adobe Illustrator 16.0.0, SVG Export Plug-In . SVG Version: 6.00 Build 0)  -->
<!DOCTYPE svg PUBLIC "-//W3C//DTD SVG 1.1//EN" "http://www.w3.org/Graphics/SVG/1.1/DTD/svg11.dtd">
<svg version="1.1" id="Capa_1" xmlns="http://www.w3.org/2000/svg" xmlns:xlink="http://www.w3.org/1999/xlink" x="0px" y="0px"
	 width="336.591px" height="336.592px" viewBox="0 0 336.591 336.592" style="enable-background:new 0 0 336.591 336.592;"
	 xml:space="preserve">
<g>
	<g>
		<path d="M278.217,21.171c-50.184-11.016-105.876,9.792-153,41.616C90.945,46.263,55.449,34.635,24.237,27.903
			c-4.896-1.224-6.732,6.12-1.836,7.344c29.988,9.792,61.2,21.42,90.576,36.72c-28.152,20.808-52.02,45.288-69.156,68.544
			c-23.868,32.435-41.616,70.379-33.048,111.383c8.568,44.064,50.796,68.544,90.576,78.336
			c44.676,11.017,99.756,9.181,138.925-17.136c38.556-26.316,41.004-80.784,25.092-120.564
			c-20.196-51.407-69.156-92.411-123.625-121.787c41.004-26.316,88.128-42.84,132.192-35.496
			C283.725,37.083,288.009,23.007,278.217,21.171z M235.99,171.723c24.479,34.884,34.884,88.128,3.06,121.788
			c-31.212,33.66-93.024,30.6-134.028,21.42c-38.556-8.568-72.216-31.212-80.172-72.216c-7.956-39.168,18.972-79.56,42.84-107.1
			c16.524-18.972,37.332-38.556,60.588-55.692C170.505,103.791,209.061,133.779,235.99,171.723z"/>
		<path d="M324.118,24.843c-7.956-5.508-15.3-11.016-22.645-16.524c-5.508-4.284-10.403-9.792-17.748-7.956
			c-2.447,0.612-4.283,3.06-4.283,5.508c0,7.344,6.731,10.404,12.239,14.688c4.896,3.672,10.404,7.344,15.301,11.016
			c-11.017,7.344-24.48,11.628-34.885,20.808c-5.508,4.896,1.225,11.628,7.345,9.18c7.956-3.672,15.911-7.344,23.256-11.016
			c7.344-3.672,16.523-7.344,22.644-13.464C329.625,33.411,328.402,27.291,324.118,24.843z"/>
	</g>
</g>
<g>
</g>
<g>
</g>
<g>
</g>
<g>
</g>
<g>
</g>
<g>
</g>
<g>
</g>
<g>
</g>
<g>
</g>
<g>
</g>
<g>
</g>
<g>
</g>
<g>
</g>
<g>
</g>
<g>
</g>
</svg>
